<?xml version="1.0" encoding="utf-8"?>
<!-- Generator: Adobe Illustrator 25.2.0, SVG Export Plug-In . SVG Version: 6.00 Build 0)  -->
<svg version="1.1" id="Layer_1" xmlns="http://www.w3.org/2000/svg" xmlns:xlink="http://www.w3.org/1999/xlink" x="0px" y="0px"
	 viewBox="0 0 71 71" style="enable-background:new 0 0 71 71;" xml:space="preserve">
<style type="text/css">
	.st0{fill:#8693F3;}
	.st1{fill:#D2232A;}
	.st2{fill:#FFD64D;}
	.st3{fill:#90CD9C;}
	.st4{fill:#75C7DA;}
	.st5{fill-rule:evenodd;clip-rule:evenodd;fill:#FFFFFF;}
	.st6{fill:#FFFFFF;}
	.st7{fill:none;stroke:#FFFFFF;stroke-width:2;stroke-linecap:round;stroke-linejoin:round;}
	.st8{fill:#FFFFFF;stroke:#FFFFFF;stroke-width:0.25;stroke-miterlimit:10;}
	.st9{clip-path:url(#SVGID_2_);}
	.st10{clip-path:url(#SVGID_4_);fill:#FFFFFF;}
	.st11{clip-path:url(#SVGID_6_);}
	.st12{fill:none;stroke:#FFFFFF;stroke-width:1.3225;stroke-miterlimit:10;}
	.st13{stroke:#FFFFFF;stroke-width:0.8817;stroke-miterlimit:10;}
	.st14{fill:none;stroke:#FFFFFF;stroke-width:1.127;stroke-miterlimit:10;}
	.st15{fill-rule:evenodd;clip-rule:evenodd;fill:#D2232A;}
	.st16{clip-path:url(#SVGID_8_);}
	.st17{clip-path:url(#SVGID_10_);}
	.st18{fill:#F3C300;}
	.st19{fill:#002F87;}
</style>
<circle class="st4" cx="35.5" cy="35.5" r="33"/>
<g>
	<g>
		<path class="st6" d="M29.23,49.71c-1.23,0-2.23-1-2.23-2.23s1-2.23,2.23-2.23s2.23,1,2.23,2.23S30.46,49.71,29.23,49.71z
			 M29.23,46.36c-0.61,0-1.11,0.5-1.11,1.11s0.5,1.11,1.11,1.11s1.11-0.5,1.11-1.11S29.84,46.36,29.23,46.36z"/>
	</g>
	<g>
		<path class="st6" d="M41.19,49.71c-1.23,0-2.23-1-2.23-2.23s1-2.23,2.23-2.23s2.23,1,2.23,2.23S42.42,49.71,41.19,49.71z
			 M41.19,46.36c-0.61,0-1.11,0.5-1.11,1.11s0.5,1.11,1.11,1.11s1.11-0.5,1.11-1.11S41.81,46.36,41.19,46.36z"/>
	</g>
	<g>
		<path class="st6" d="M48.97,24.17l-3.17,14c-0.03,0.16-0.13,0.32-0.27,0.42c-0.13,0.11-0.27,0.16-0.48,0.16H29.97
			c-0.29,0-0.58,0.1-0.8,0.29l-2.13,1.77l-0.06,0.07c-0.08,0.14-0.12,0.29-0.12,0.45c0,0.16,0.04,0.31,0.12,0.45
			c0.08,0.14,0.19,0.26,0.32,0.34c0.14,0.08,0.29,0.12,0.46,0.13h16.85c0.2,0,0.39,0.08,0.53,0.22s0.22,0.33,0.22,0.53
			s-0.08,0.39-0.22,0.53c-0.14,0.14-0.33,0.22-0.53,0.22h-16.7c-0.38,0.02-0.78-0.05-1.14-0.21c-0.35-0.16-0.67-0.4-0.92-0.69
			c-0.34-0.44-0.53-0.99-0.51-1.55c0.01-0.56,0.22-1.1,0.58-1.51l1.22-1.03c0.4-0.32,0.56-0.85,0.4-1.34l-4.22-13.36
			c-0.13-0.39-0.44-0.69-0.83-0.81L19.4,22.3c-0.19-0.06-0.35-0.19-0.44-0.37c-0.1-0.17-0.12-0.38-0.06-0.57s0.19-0.35,0.37-0.45
			c0.09-0.04,0.18-0.07,0.28-0.08h0.07c0.08,0,0.15,0.01,0.22,0.03l4.11,1.26c0.11,0.03,0.22,0.1,0.3,0.18
			c0.09,0.09,0.15,0.19,0.19,0.3l4.35,13.78c0.16,0.52,0.64,0.87,1.19,0.87h13.47c0.59,0,1.09-0.4,1.22-0.98l2.36-10.63
			c0.05-0.22,0-0.44-0.14-0.62c-0.14-0.17-0.35-0.27-0.57-0.27H28.79c-0.33,0-0.62-0.21-0.72-0.52C28,24,28.04,23.76,28.18,23.56
			s0.36-0.31,0.61-0.31h19.44c0.11,0,0.22,0.03,0.32,0.07c0.1,0.05,0.18,0.12,0.25,0.21h0.01c0.07,0.09,0.13,0.19,0.15,0.3
			C48.99,23.94,49,24.06,48.97,24.17z"/>
	</g>
</g>
</svg>
